PathFileType	3	(X/Y/Z)	F:\ViconData\AntennenMessung\Messung1\Session1\ID09.trc
DataRate	CameraRate	NumFrames	NumMarkers	Units	OrigDataRate	OrigDataStartFrame	OrigNumFrames
120.0	120.0	5	70	mm	120.0	677	1082	
Frame#	Time	Ashort			Along			Atop			A4			Bshort			Blong			Btop			B4			Cshort			Clong			Ctop			C4			Dshort			Dlong			Dtop			D4			Eshort			Elong			Etop			E4			Fshort			Flong			Ftop			F4			Gshort			Glong			Gtop			G4			Hshort			Hlong			Htop			H4			I1			I2			I3			I4			I5			WandAshort			WandAlong			WandAtop			WandA4			WandA15			WandBshort			WandB4			WandB5			WandBtop			WandBlong			WandCshort			WandClong			WandCtop			WandC4			WandC5			Acenter			Aantenna			Bcenter			Bantenna			Ccenter			Cantenna			Dcenter			Dantenna			Ecenter			Eantenna			Fcenter			Fantenna			Gcenter			Gantenna			Hcenter			Hantenna			Icenter			Iantenna			
		X1	Y1	Z1	X2	Y2	Z2	X3	Y3	Z3	X4	Y4	Z4	X5	Y5	Z5	X6	Y6	Z6	X7	Y7	Z7	X8	Y8	Z8	X9	Y9	Z9	X10	Y10	Z10	X11	Y11	Z11	X12	Y12	Z12	X13	Y13	Z13	X14	Y14	Z14	X15	Y15	Z15	X16	Y16	Z16	X17	Y17	Z17	X18	Y18	Z18	X19	Y19	Z19	X20	Y20	Z20	X21	Y21	Z21	X22	Y22	Z22	X23	Y23	Z23	X24	Y24	Z24	X25	Y25	Z25	X26	Y26	Z26	X27	Y27	Z27	X28	Y28	Z28	X29	Y29	Z29	X30	Y30	Z30	X31	Y31	Z31	X32	Y32	Z32	X33	Y33	Z33	X34	Y34	Z34	X35	Y35	Z35	X36	Y36	Z36	X37	Y37	Z37	X38	Y38	Z38	X39	Y39	Z39	X40	Y40	Z40	X41	Y41	Z41	X42	Y42	Z42	X43	Y43	Z43	X44	Y44	Z44	X45	Y45	Z45	X46	Y46	Z46	X47	Y47	Z47	X48	Y48	Z48	X49	Y49	Z49	X50	Y50	Z50	X51	Y51	Z51	X52	Y52	Z52	X53	Y53	Z53	X54	Y54	Z54	X55	Y55	Z55	X56	Y56	Z56	X57	Y57	Z57	X58	Y58	Z58	X59	Y59	Z59	X60	Y60	Z60	X61	Y61	Z61	X62	Y62	Z62	X63	Y63	Z63	X64	Y64	Z64	X65	Y65	Z65	X66	Y66	Z66	X67	Y67	Z67	X68	Y68	Z68	X69	Y69	Z69	X70	Y70	Z70	
677	5.6333333	-1038.2062	214.51205	-1644.1586	-1109.3666	203.95013	-1599.3724	-1063.6307	172.3138	-1625.6	-1054.1567	262.22577	-1634.9237	-1352.7377	235.16296	1004.0219	-1281.2772	227.09276	1052.6987	-1322.957	193.91609	1020.9182	-1284.6962	288.1387	1052.325	814.14209	187.51404	1209.5482	892.12286	178.49942	1179.2858	844.24451	145.73373	1198.2142	860.70917	292.99191	1167.3551	1115.7477	209.61674	-1401.5631	1056.1494	194.17091	-1460.2285	1094.9889	162.325	-1423.8881	1069.8461	238.80409	-1425.8397	-1204.5959	1686.0177	-1563.083	-1129.1403	1688.2587	-1605.985	-1173.1412	1724.4031	-1581.9314	-1134.0408	1581.0459	-1603.7719	-1239.7864	1699.3967	1119.5123	-1309.2627	1698.6602	1071.8815	-1270.506	1736.4233	1096.9266	-1244.8899	1593.99	1106.3105	988.94629	1664.3265	1162.3442	955.81531	1702.4534	1181.2101	922.22491	1662.2727	1214.9672	939.80432	1659.4248	1159.9701	999.12891	1668.4993	-1579.3805	1058.9034	1670.1898	-1518.5886	1025.0244	1708.0439	-1551.0852	1059.2626	1672.2065	-1585.4948	410.9729	1606.3588	-24.002106	411.43292	1608.0398	-108.09342	413.42627	1644.0317	-60.87875	444.125	1605.0304	-61.075058	363.4566	1610.2902	-61.338711																																														-1068.7871	209.97308	-1624.9117	-1074.077	248.60622	-1624.2059	-1321.6233	231.64914	1025.2159	-1320.2546	270.37473	1029.627	847.93225	183.60785	1196.4351	851.70782	222.38191	1194.6136	1088.7399	202.61726	-1428.1482	1082.7952	240.94788	-1432.2008	-1171.8873	1686.989	-1581.6801	-1170.5809	1648.0118	-1581.4185	-1270.9478	1699.0663	1098.1488	-1271.4089	1660.0898	1099.424	953.3335	1705.3093	1182.6232	972.84595	1732.3035	1162.3358	1026.5427	1669.2745	-1551.5	1028.069	1630.3066	-1551.9169	411.17871	1607.1108	-61.629162	408.80945	1568.1909	-62.420212
678	5.6416667	-1038.2433	214.51401	-1644.1655	-1109.3546	203.91534	-1599.3523	-1063.6179	172.77113	-1625.8315	-1054.1774	262.22589	-1634.9076	-1352.8302	235.05402	1004.1459	-1281.2203	227.11342	1052.7109	-1322.9443	194.00029	1020.9012	-1284.6489	288.15884	1052.2723	814.25964	187.41234	1209.6005	892.56866	179.23154	1178.7169	844.30078	145.63948	1198.3208	860.63745	293.0177	1167.3771	1115.7319	209.59836	-1401.5656	1056.1454	194.18643	-1460.202	1094.9978	162.308	-1423.9003	1069.851	238.79355	-1425.8419	-1204.5898	1686.0302	-1563.0929	-1129.1379	1688.2827	-1606.0012	-1173.1414	1724.3988	-1581.9281	-1134.0441	1581.0409	-1603.7607	-1239.7551	1699.3596	1119.502	-1309.2316	1698.6064	1071.854	-1270.4795	1736.3885	1096.9158	-1245.0444	1593.5833	1106.3358	988.94409	1664.3125	1162.337	955.89752	1702.3176	1181.1914	922.61914	1662.1753	1214.995	939.79407	1659.4154	1159.9824	999.14575	1668.5105	-1579.3838	1058.9023	1670.1763	-1518.6056	1025.0271	1708.0374	-1551.0771	1059.2837	1672.2056	-1585.4983	410.98917	1606.3654	-23.982006	411.44434	1608.0383	-108.09236	413.44168	1644.0374	-60.887539	444.15356	1605.0731	-61.064388	363.37173	1610.3442	-61.430885																																														-1068.6445	209.98288	-1625.0071	-1073.8641	248.62256	-1624.151	-1321.7198	231.60429	1025.2444	-1320.4592	270.32651	1029.7167	847.56885	183.93257	1196.4639	850.88141	222.74603	1194.5818	1088.7357	202.61586	-1428.1312	1082.7808	240.94794	-1432.1549	-1171.8892	1687.0062	-1581.6892	-1170.584	1648.0289	-1581.4402	-1270.9106	1699.0219	1098.1351	-1271.3604	1660.0453	1099.407	953.48102	1705.0964	1182.5701	972.88892	1732.0883	1162.1792	1026.5494	1669.2743	-1551.5114	1028.0798	1630.3068	-1551.9481	411.1929	1607.1141	-61.634113	408.82248	1568.1941	-62.42107
679	5.65	-1038.2191	214.48271	-1644.2438	-1109.3331	203.963	-1599.3862	-1063.6566	172.27448	-1625.5834	-1054.1804	262.21655	-1634.9326	-1352.8513	235.01753	1004.1329	-1281.3219	227.1371	1052.7922	-1322.9062	194.02315	1020.8691	-1284.7274	288.14496	1052.3593	814.21942	187.46687	1209.5472	892.60492	179.20609	1178.6804	844.30194	145.6843	1198.2539	860.67584	293.00879	1167.3934	1115.7223	209.59502	-1401.561	1056.149	194.16406	-1460.1686	1094.9894	162.32816	-1423.8842	1069.8213	238.77609	-1425.8386	-1204.6112	1686.0377	-1563.0851	-1129.1262	1688.2559	-1606.0001	-1173.1344	1724.4081	-1581.9437	-1133.786	1581.0459	-1603.6335	-1239.7987	1699.4249	1119.5332	-1309.2407	1698.6467	1071.8719	-1270.4835	1736.3855	1096.9142	-1244.9088	1593.9875	1106.1613	988.88416	1664.2627	1162.3369	955.76477	1702.2775	1181.0959	922.76935	1662.1353	1215.1113	939.79529	1659.4612	1159.9259	999.15161	1668.4924	-1579.348	1058.8984	1670.1786	-1518.5966	1025.0227	1708.0509	-1551.0839	1059.2778	1672.2069	-1585.4994	410.97137	1606.3563	-23.98745	411.42703	1608.0396	-108.09048	413.43802	1644.054	-60.880531	444.15756	1605.0958	-61.06406	363.37051	1610.3313	-61.427734																																														-1068.8239	209.95541	-1624.9386	-1074.1217	248.58824	-1624.2776	-1321.7668	231.59296	1025.2786	-1320.5927	270.30951	1029.8228	847.60468	183.9485	1196.4006	850.95465	222.75888	1194.5212	1088.7252	202.60208	-1428.1204	1082.7633	240.93224	-1432.1522	-1171.8896	1686.9991	-1581.688	-1170.5928	1648.0217	-1581.4213	-1270.9264	1699.076	1098.1687	-1271.3892	1660.1008	1099.4794	953.41992	1704.9688	1182.4241	972.70349	1731.9172	1161.859	1026.5397	1669.2653	-1551.4993	1028.0637	1630.2974	-1551.9166	411.17532	1607.1096	-61.632183	408.79166	1568.1906	-62.424019
680	5.6583333	-1038.2045	214.51732	-1644.1647	-1109.3325	204.04028	-1599.4255	-1063.5605	172.30203	-1625.6564	-1054.1676	262.20126	-1634.8927	-1352.825	235.10927	1004.1175	-1281.3348	227.10197	1052.736	-1322.9225	193.93802	1020.9417	-1284.8673	288.07858	1052.5148	814.16852	187.49321	1209.6023	892.59711	179.28539	1178.6836	844.31244	145.71643	1198.2128	860.8277	293.3793	1166.9679	1115.7803	209.86987	-1401.715	1056.1556	194.15736	-1460.1635	1094.9971	162.34657	-1423.8162	1069.8033	238.71126	-1425.7981	-1204.6077	1686.0278	-1563.0845	-1129.1306	1688.2714	-1605.9928	-1173.1421	1724.4164	-1581.951	-1134.0376	1581.0531	-1603.7871	-1239.7885	1699.4025	1119.5106	-1309.3979	1698.91	1071.965	-1270.5365	1736.4535	1096.9424	-1244.9498	1593.8829	1106.3243	988.8382	1664.2257	1162.3096	955.85144	1702.3032	1181.1969	922.69366	1662.1893	1215.0737	939.78583	1659.4205	1159.9183	999.1203	1668.5336	-1579.4053	1058.8926	1670.1804	-1518.6005	1025.017	1708.0354	-1551.074	1059.2699	1672.1556	-1585.3855	410.96884	1606.3571	-23.989855	411.44174	1608.0471	-108.07951	413.42746	1644.0449	-60.884647	444.17059	1605.1082	-61.055576	363.32974	1610.3623	-61.438766																																														-1068.6954	210.02605	-1624.986	-1073.9548	248.66368	-1624.2993	-1321.6694	231.61967	1025.3054	-1320.382	270.33966	1029.7893	847.61084	183.99335	1196.4185	850.95557	222.80704	1194.599	1088.7054	202.73502	-1428.2556	1082.7377	241.045	-1432.4666	-1171.881	1687.0006	-1581.6892	-1170.5674	1648.0237	-1581.4166	-1271.0861	1699.1809	1098.1331	-1271.6609	1660.205	1099.3783	953.50189	1705.0151	1182.5422	972.88763	1731.9628	1162.0721	1026.535	1669.2888	-1551.5167	1028.0619	1630.3213	-1551.9622	411.18054	1607.1138	-61.639481	408.81262	1568.1938	-62.434967
681	5.6666667	-1038.2312	214.57608	-1644.1981	-1109.3311	203.94208	-1599.3956	-1063.5271	172.81569	-1625.8555	-1054.1731	262.2207	-1634.9194	-1352.7799	235.03323	1004.1424	-1281.3567	227.12886	1052.7499	-1322.9534	193.97731	1020.8999	-1284.6573	288.18472	1052.2523	814.18805	187.47729	1209.5798	892.07355	178.44073	1179.3022	844.32428	145.66267	1198.2921	860.73669	292.83444	1167.7386	1115.7819	209.86946	-1401.708	1056.1566	194.17209	-1460.2036	1095.0718	162.36528	-1423.8958	1069.8467	238.82594	-1425.8625	-1204.5359	1685.9711	-1563.2294	-1129.1466	1688.2626	-1606.0081	-1173.1482	1724.4121	-1581.9337	-1134.0319	1581.0432	-1603.7806	-1239.7147	1699.2944	1119.4893	-1309.3948	1698.9061	1071.9747	-1270.4984	1736.4073	1096.9275	-1244.8806	1593.9803	1106.2428	988.91199	1664.287	1162.298	955.87213	1702.3599	1181.1649	922.6828	1662.1713	1215.0637	939.84308	1659.4523	1159.9456	999.14258	1668.5023	-1579.3784	1058.9032	1670.1847	-1518.585	1025.0189	1708.0341	-1551.0724	1059.2701	1672.2018	-1585.4939	410.97153	1606.3561	-23.977882	411.43582	1608.0446	-108.07672	413.43701	1644.0372	-60.885231	444.12109	1605.0587	-61.045929	364.02759	1609.8896	-61.057541																																														-1068.5955	210.03465	-1625.0645	-1073.8564	248.66945	-1624.2437	-1321.7546	231.59969	1025.2567	-1320.5211	270.32141	1029.741	847.99902	183.55441	1196.4359	851.75909	222.32623	1194.5366	1088.72	202.74495	-1428.2571	1082.694	241.05376	-1432.3949	-1171.9033	1686.9629	-1581.7461	-1170.6078	1647.9849	-1581.5508	-1271.0875	1699.1196	1098.0962	-1271.7035	1660.1436	1099.3179	953.52246	1705.0674	1182.5066	972.90363	1732.0255	1162.046	1026.5463	1669.2737	-1551.501	1028.0818	1630.3064	-1551.932	411.17941	1607.1121	-61.639046	408.79993	1568.1929	-62.433575
